PathFileType	4	(X/Y/Z)	OpenSim_Sub05_CSStiffKnee_Accel.trc
DataRate	CameraRate	NumFrames	NumMarkers	Units	OrigDataRate	OrigDataStartFrame	OrigNumFrames
100	100	27	8	m	100	2813	11248
Frame#	Time	torso_imu_offset_imu	pelvis_imu_offset_imu	tibia_r_imu_offset_imu	femur_r_imu_offset_imu	tibia_l_imu_offset_imu	femur_l_imu_offset_imu	toes_r_imu_offset_imu	toes_l_imu_offset_imu
				X1	Y1	Z1	X2	Y2	Z2	X3	Y3	Z3	X4	Y4	Z4	X5	Y5	Z5	X6	Y6	Z6	X7	Y7	Z7	X8		Y8	Z8	

2813	28.12000000	9.55705530	-0.71946307	6.06675308	9.55263013	-0.54939365	1.47512369	11.08830202	1.57649872	1.40807837	10.06334558	-2.08816025	2.63714537	9.29523689	-4.61112183	-0.85752962	8.55903537	1.08383590	1.03680897	7.00203078	-1.59925029	7.28175468	14.45941214	-0.09340364	3.85300090
2814	28.13000000	9.76809823	-0.73464039	6.13824851	9.81449223	-0.61734242	1.38865317	11.24516527	1.62944695	1.75326161	10.34823365	-2.27938550	2.93983380	9.23542581	-4.65346933	-0.66669264	8.17520298	0.55620556	1.01118650	7.05942396	-1.15211131	7.39640117	14.26395651	-0.11355281	3.69451070
2815	28.14000000	9.78820803	-0.79747098	6.15351988	9.86098897	-0.56445494	1.34468514	11.25581676	1.02675525	2.37904269	10.32536942	-2.73630789	3.09662357	9.10785711	-5.13269334	-0.64697481	8.15870157	-0.24438825	0.97913967	7.02395477	-0.92076373	7.61067102	14.03064518	0.42272101	3.65806566
2816	28.15000000	9.71437754	-0.81231992	6.10285034	9.74461602	-0.48699309	1.36663654	11.37798856	0.24819394	2.51480838	10.15153716	-3.35516896	2.76079716	8.83391601	-5.35515194	-0.58479338	8.20195049	-0.88548731	0.75549259	7.24300520	-0.76912615	7.56136512	12.52688078	0.55888653	3.70749991
2817	28.16000000	9.50122295	-0.81544983	6.11474749	9.56552246	-0.44357595	1.46664272	11.71848025	-1.05024577	2.40678465	9.88620633	-3.94709140	2.39084153	8.58862537	-6.04032914	-0.92514781	8.08664533	-1.01690990	0.65907460	7.30862004	-1.07205229	7.38916976	12.52045321	6.26269474	2.32917470
2818	28.17000000	9.18783955	-0.83580237	6.19640131	9.45467101	-0.40567435	1.73754296	12.12737519	-2.60050499	2.26166340	9.57547354	-4.48125195	2.52803423	10.07131490	-4.42314961	-0.81830038	8.31285294	-0.85689674	0.85420650	6.94474499	-1.44331317	7.75204747	12.12660474	-1.80850286	-3.25353132
2819	28.18000000	8.96537025	-0.77726642	6.28593364	9.38822525	-0.45516278	2.24153594	12.76724998	-3.58510203	2.21744476	9.51833077	-4.76546957	2.96130756	11.58210527	-3.18889754	0.31960997	8.98482290	-0.52641554	1.22527991	6.57734860	-1.82222777	8.28691573	10.87346457	-5.58495379	3.66031458
2820	28.19000000	9.03086372	-0.59103208	6.31717450	9.40798349	-0.76291565	2.91223840	13.85129539	-4.20592377	2.59806006	9.55409262	-4.82358077	3.25490752	10.65041715	-6.52534961	0.32356738	10.12959144	-0.25156011	1.59088900	6.17352160	-2.46485625	8.53988124	11.65431172	4.24174426	19.19009785
2821	28.20000000	9.42449550	-0.29531964	6.34847222	9.55695628	-1.21508086	3.84401846	14.83070182	-5.06017601	2.77094726	9.56526776	-4.72174196	3.25624823	11.74252726	-4.31765502	2.58620676	12.94326219	-0.48995788	1.69928960	6.10756074	-2.89806286	9.06103582	6.67676342	-1.42250401	19.23494075
2822	28.21000000	10.30419914	0.21073477	6.59176074	9.90737589	-2.06330279	4.94636428	15.89721308	-5.81755232	2.79462990	9.99810324	-4.66667576	3.21937742	15.39123156	3.05952030	6.54080157	16.33759853	-0.69909598	2.08043924	6.10568818	-3.40060117	10.06532098	4.41724497	-4.09230195	14.91450076
2823	28.22000000	11.09740681	0.88790079	6.85505984	10.27637140	-3.16376635	5.74343694	17.62706562	-6.33512435	2.98349788	10.67437993	-4.68606748	3.46643046	15.54660698	3.80712532	7.33083447	16.92439731	-0.37934145	2.48432630	6.14948392	-3.80817484	10.70428051	11.33944256	0.60749356	16.88807020
2824	28.23000000	10.98053937	1.41487318	6.77055692	10.74683127	-3.89299206	5.83990261	19.46517595	-6.56256228	2.96777359	10.80461631	-4.62625581	3.94956637	12.66060163	-0.37572871	5.12176744	14.68807110	0.27007340	2.38429680	7.03745978	-3.89495448	11.18006925	11.82746576	2.03103858	16.01423155
2825	28.24000000	10.04247835	1.67681700	6.30407662	11.18790827	-4.00523215	5.55946189	19.64759406	-6.61216652	2.57923939	10.27606134	-4.32824015	4.63117106	10.69763289	-3.45329236	1.22996242	12.68368292	1.45274696	2.29968923	9.89330282	-4.84584635	12.15395838	7.48285764	1.06267223	12.39664835
2826	28.25000000	8.84053225	1.80942631	5.65711286	10.91088188	-3.28308871	5.14748234	18.28689092	-7.51737301	1.33149323	9.84312521	-3.45091021	5.83531712	9.35471883	-4.64032148	-0.62760162	10.59021737	2.52800049	1.87139852	12.67123441	-5.71490237	11.84837999	7.45247743	1.80742037	12.07272855
2827	28.26000000	7.84676392	2.07061239	5.10645507	10.11632383	-1.95168337	4.41516537	16.72961463	-7.16562131	-0.30005007	10.03497570	-2.10237902	6.63694481	8.63574793	-3.47905159	-0.55892571	8.19789962	1.97219644	0.72284833	16.75050826	-4.75444968	11.38706193	7.35854914	3.09813177	11.60899057
2828	28.27000000	7.23774358	2.40949125	4.81633960	9.01702381	-0.51748530	3.53401345	14.68396120	-3.29338551	-1.60794209	10.11326625	-0.51153496	6.98239162	8.72115209	-1.39185028	-1.04731980	7.08217866	-0.25519876	-0.71492769	19.17715389	-5.39411053	10.93626454	5.73500364	4.10623153	10.91658453
2829	28.28000000	6.95204739	2.67109884	4.74507903	7.91746368	0.34508620	2.95034297	11.83828747	2.75467472	-2.82597332	10.15684879	0.72682361	5.85782434	8.62838308	-1.52322880	-2.84220946	7.75969663	-2.52105813	-2.03020742	18.55639165	-7.32428057	8.90384202	4.70949706	4.89537511	11.08073305
2830	28.29000000	7.08698947	2.91667601	4.86651327	7.40572646	0.36527988	2.71654254	9.11697507	8.17592300	-2.91946714	10.62143210	1.12537014	2.32471066	8.97941772	-3.03675479	-3.93480225	9.40487969	-2.71692795	-2.53940174	17.20345561	-7.10457142	8.78585037	5.30415936	4.85782677	11.08945914
2831	28.30000000	7.79653821	3.15159174	5.09232100	7.54804284	-0.58021697	2.78895413	7.62958702	12.25199677	-1.85241213	10.62766820	0.64576984	0.30962341	9.91032054	-3.83312430	-3.49529906	10.30546347	-0.89565733	-2.48304850	14.22305778	-6.01284149	8.51970651	5.59640298	3.97567805	11.56879377
2832	28.31000000	8.67002754	3.20736277	5.34065061	8.09565418	-2.07820774	3.04162632	6.86781621	15.21483416	-2.59699636	10.81057237	-0.57691536	1.14875407	10.27676536	-4.33993215	-3.30651301	10.45707643	0.91831703	-2.01845178	8.07903678	-6.03315250	13.02075658	5.33465371	2.92324552	11.67300991
2833	28.32000000	9.44688049	2.93162918	5.53891633	8.78745820	-3.16414556	3.18793257	5.92005862	15.31268121	-3.67381456	11.79372083	-2.20893714	3.07861592	10.32802563	-4.00176487	-2.43610404	10.43894469	1.90042284	-1.32670638	8.60876160	-8.60030000	21.37954455	6.03611541	2.11380073	11.18687422
2834	28.33000000	10.16255898	2.74090352	5.59516207	9.68286602	-3.66205503	3.28372825	4.03378917	12.22968475	-3.80729029	12.82953206	-3.57901333	5.42601512	10.35730923	-2.60318312	-0.66337034	10.20440192	1.76861625	-0.64826357	3.33032344	-7.36744700	19.38350460	6.48072352	1.68496869	11.01273245
2835	28.34000000	10.81030432	2.90896835	5.87303037	11.01223261	-3.60356596	3.21782816	2.11582495	7.98104743	-1.48147080	13.36517618	-3.77017130	7.13705646	10.32649345	-1.73817015	-0.11753722	9.87712013	0.55405840	-0.10858960	-2.41942823	-6.81516138	16.34768817	5.72711853	1.93119438	11.27817571
2836	28.35000000	11.22237775	3.16923145	6.05756968	12.30430731	-3.06082351	3.00489874	1.19909191	5.02975480	1.62558925	13.11573410	-3.26994861	6.65413140	10.30951198	-1.22198377	-0.08535742	9.74351192	-0.95579648	-0.00192677	-1.53354203	-7.34614637	16.25565535	4.71240862	2.24541015	11.56832633
2837	28.36000000	11.04910570	3.19329347	6.10151852	13.00063592	-2.22057449	2.92635413	0.68009392	4.25440451	-0.28307168	12.21325604	-2.67773889	4.98672593	10.01623877	-1.11485066	-0.01709737	9.76511244	-2.01901472	-0.01873082	-4.66839364	-4.61756652	14.39855408	4.43247949	2.22616152	11.60531884
2838	28.37000000	10.44382182	2.91685380	6.33120499	12.84049102	-1.48720353	2.88010737	0.42248752	4.18109954	-1.51769491	11.01704799	-1.80758309	4.18011538	9.86082293	-1.91380609	-0.42783649	9.93802269	-2.22541453	-0.15445869	-2.70626342	-3.75017580	13.94446409	4.53751118	2.04779914	11.45090482
2839	28.38000000	10.10455551	2.44400783	6.43433978	11.99520314	-1.08438526	2.68158002	-0.02567750	4.07656747	0.78064405	9.72602488	-1.19266199	4.00752867	9.89659476	-2.76324323	-0.73105229	9.99742706	-1.42070854	-0.14765204	-2.30267645	-2.97713965	12.98030355	4.95810691	2.03189641	11.16481063
